<svg xmlns="http://www.w3.org/2000/svg" viewBox="0 1 26 28" fill="currentColor">
  <path d="M22.7595 6.00739C21.8734 4.77867 20.702 3.77454 19.3422 3.078C17.9824 2.38146 16.4732 2.0125 14.9394 2.00162C14.9394 2.00162 9.92402 1.80174 7.59031 5.83665C7.59031 5.83665 7.20415 6.57786 6.8647 7.41899C6.54258 8.16193 6.16681 8.88138 5.74026 9.57179C5.04371 10.662 4.18569 11.6443 3.19439 12.4866C2.88688 12.7238 2.59364 12.9782 2.31609 13.2486C1.55237 14.0127 0.95386 14.9204 0.556477 15.9172C0.159095 16.9139 -0.0289495 17.9792 0.00360837 19.0491C0.0790019 20.7588 0.673549 22.4074 1.7109 23.7831C2.74826 25.1587 4.18103 26.1986 5.82515 26.7691C5.82515 26.7691 11.1885 28.6762 16.2293 25.4782C16.2293 25.4782 21.321 22.3677 23.7608 15.4305C23.7693 15.4472 25.6533 10.2297 22.7595 6.00739Z"/>
</svg>
