<svg width="200" height="200" viewBox="0 0 200 200" fill="none" xmlns="http://www.w3.org/2000/svg">
<rect width="200" height="200" rx="40" fill="#FF6600"/>
<path d="M126.626 100.449C127.638 100.449 128.467 101.242 128.524 102.241L126.549 131.304H73.9716L71.9961 102.241C72.0519 101.243 72.8823 100.449 73.8946 100.449H126.626H126.626ZM126.626 95.8929H73.8974C70.3317 95.8929 67.4397 98.7846 67.4397 102.351L69.7176 135.862H130.809L133.087 102.351C133.086 98.7826 130.194 95.8929 126.628 95.8929H126.626Z" fill="white"/>
<path fill-rule="evenodd" clip-rule="evenodd" d="M128.831 144.526H71.6543C70.584 144.526 69.7169 143.657 69.7169 142.588V138.401H130.771V142.587C130.771 143.657 129.903 144.526 128.833 144.526H128.831Z" fill="white"/>
<path d="M104.109 115.877C104.109 118.012 102.378 119.743 100.243 119.743C98.1076 119.743 96.3766 118.012 96.3766 115.877C96.3766 113.742 98.1076 112.011 100.243 112.011C102.378 112.011 104.109 113.742 104.109 115.877Z" fill="white"/>
<path d="M176.624 41.8126C176.624 48.8886 170.887 54.6251 163.811 54.6251C156.735 54.6251 151 48.8886 151 41.8126C151 34.7366 156.735 29 163.811 29C170.887 29 176.624 34.7366 176.624 41.8126Z" fill="white"/>
<path d="M62.3972 85.6171L60.3269 66.0491C59.8972 62.6048 56.9709 60.0191 53.4989 60.0157L19.596 59.9766C16.0323 59.9722 13.0537 62.6887 12.73 66.2389C12.7255 63.8929 11.4499 85.1575 10.8461 104.656C10.8383 104.931 10.8483 105.198 10.8896 105.469C11.9398 112.388 14.635 121.284 28.7379 125.815C37.1722 128.522 38.9656 121.839 35.7302 117.855C32.5539 113.946 29.7156 110.849 27.8039 108.052C26.0182 105.441 26.3619 98.0043 26.4222 97.098C28.8965 95.6538 33.1599 93.8937 35.0585 93.1314C43.0865 89.9037 52.3611 87.4183 62.3988 85.618L62.3972 85.6171Z" fill="white"/>
<path d="M189.591 116.749C188.395 118.819 186.809 120.825 184.692 122.667C183.932 129.261 175.543 136.316 161.916 141.723C145.522 148.229 123.605 151.811 100.199 151.811C76.7929 151.811 54.8763 148.23 38.482 141.723C24.6026 136.215 16.1529 129.001 15.6652 122.304C13.6172 120.443 12.0926 118.42 10.9475 116.342C10.3995 117.797 13.8469 169.822 13.8469 169.822H24.5566L24.2687 141.048C33.6627 146.84 47.1427 151.485 63.1029 154.346L65.5628 189.397H76.1365L78.8463 156.497C85.6946 157.157 92.8386 157.515 100.198 157.515C107.296 157.515 114.192 157.179 120.816 156.566L123.1 189.397H133.673L136.553 154.48C152.841 151.629 166.593 146.927 176.133 141.044L175.88 169.336H186.59C186.595 169.336 190.053 118.076 189.592 116.753L189.591 116.749Z" fill="white"/>
<path d="M138.371 85.6171L140.442 66.0491C140.871 62.6048 143.798 60.0191 147.27 60.0157L181.173 59.98C184.736 59.9755 187.715 62.692 188.039 66.2423C188.043 63.8963 189.319 85.1608 189.923 104.659C189.93 104.934 189.92 105.202 189.879 105.472C188.829 112.392 186.134 121.288 172.031 125.818C163.596 128.526 161.803 121.843 165.038 117.858C168.215 113.95 171.053 110.852 172.965 108.056C174.75 105.444 174.407 98.0076 174.346 97.1014C171.872 95.6572 167.609 93.8971 165.71 93.1348C157.682 89.9036 148.408 87.4182 138.37 85.6179L138.371 85.6171Z" fill="white"/>
<path d="M30.4171 103.526C32.6928 102.352 35.1817 101.222 37.8791 100.152C54.4594 93.5714 76.5906 89.9474 100.196 89.9474C123.802 89.9474 145.933 93.5714 162.513 100.152C165.359 101.281 167.975 102.474 170.352 103.72V99.164C153.806 91.0603 128.529 85.8783 100.195 85.8783C72.0786 85.8783 46.9688 90.9797 30.4146 98.9789L30.4171 103.526Z" fill="white"/>
<path d="M49.624 41.8126C49.624 48.8886 43.8874 54.6251 36.8114 54.6251C29.7354 54.6251 24 48.8886 24 41.8126C24 34.7366 29.7354 29 36.8114 29C43.8874 29 49.624 34.7366 49.624 41.8126Z" fill="white"/>
<path d="M85.7829 62.7343L63.0955 51.616V47.9866L85.7829 35.3951V41.4866L70.1546 49.5346L85.7829 56.6686V62.7343Z" fill="white"/>
<path d="M109.703 30.7743L97.2532 67.8886H90.9252L103.375 30.7743H109.703Z" fill="white"/>
<path d="M115.683 56.6657L131.311 49.5317L115.683 41.4837V35.3923L138.37 47.9837V51.6131L115.683 62.7314V56.6657Z" fill="white"/>
</svg>
